P2
103 103
255
160 99 100 161 80 134 191 97 38 120 84 201 95 147 117 128 216 42 205 57 96 165 166 177 125 191 147 187 204 119 72 60 114 80 88 119 199 105 73 72 210 176 104 99 179 156 65 168 89 123 171 124 96 85 79 165 109 211 166 131 49 80 107 149 184 211 139 107 95 205 147 120 171 138 128 120 129 141 171 185 207 104 148 117 105 119 77 207 111 149 174 108 202 131 206 206 215 172 191 83 106 137 169
89 105 104 47 51 66 62 125 68 238 131 66 205 92 75 129 129 157 189 90 202 212 198 202 223 138 169 102 135 170 51 180 114 114 186 179 123 128 190 145 149 89 103 47 154 76 129 154 168 72 76 190 52 167 161 162 177 184 66 92 175 106 154 68 129 59 69 141 97 133 149 117 64 178 192 195 199 218 119 116 59 155 104 174 226 185 176 170 146 230 206 100 98 128 107 211 194 121 134 205 92 156 167
36 69 209 136 100 178 199 115 146 198 157 204 174 145 196 98 205 157 139 134 46 145 137 170 121 199 153 133 130 125 128 96 117 165 46 92 177 103 82 120 127 78 89 146 99 67 100 118 78 117 72 98 76 107 84 68 119 88 76 114 67 83 164 109 197 96 94 102 162 158 147 186 162 150 167 187 178 79 192 55 116 228 146 96 198 182 111 113 84 209 186 156 106 219 140 184 135 196 215 110 179 109 80
77 62 127 90 186 194 66 167 93 200 143 175 180 63 174 113 165 137 186 184 187 146 57 182 170 162 126 97 100 196 137 83 75 86 47 59 151 99 118 47 60 65 161 62 95 89 88 51 129 161 85 49 92 70 96 70 109 164 202 94 176 190 82 165 135 207 181 69 157 200 155 90 179 180 166 206 188 179 141 136 113 120 72 156 177 185 86 200 226 139 155 161 164 223 204 202 191 144 198 208 156 120 150
159 75 181 58 65 105 206 120 217 107 165 170 116 141 93 192 118 103 176 84 147 83 79 154 67 144 93 110 131 59 127 89 157 85 147 73 58 111 82 138 84 148 97 68 129 72 56 153 161 84 138 64 94 103 155 137 195 186 178 198 126 94 113 83 197 149 180 170 180 118 158 165 124 149 85 95 176 145 120 127 84 150 95 123 104 115 113 201 139 166 164 153 72 94 124 189 111 120 66 137 113 108 144
128 48 72 55 165 99 120 180 190 221 102 188 68 119 166 177 209 77 162 96 218 94 63 43 133 130 161 129 151 150 147 144 106 89 57 108 90 113 63 118 106 131 137 94 147 185 168 114 150 74 170 192 180 167 188 161 208 145 118 83 87 78 49 168 162 146 199 158 140 67 70 64 189 96 87 79 79 89 182 138 75 147 89 141 191 72 199 51 115 195 195 218 204 150 127 176 212 197 223 113 114 107 100
87 62 74 67 69 118 192 113 221 181 189 70 138 202 98 147 218 182 136 102 83 78 129 141 70 104 92 100 89 135 140 77 123 57 124 74 75 65 133 82 73 118 125 74 171 109 182 209 123 85 157 160 144 114 197 178 133 119 77 79 133 76 78 88 109 140 68 88 64 64 67 48 68 106 84 75 65 59 66 206 76 54 82 212 64 68 182 88 92 118 134 135 201 215 159 175 144 166 167 213 114 62 118
68 86 64 147 170 205 99 206 177 205 168 137 102 179 225 182 164 95 35 72 177 167 87 54 60 67 79 96 52 97 98 63 36 79 47 59 96 99 57 92 58 74 66 116 157 102 131 66 190 134 62 48 160 96 141 96 84 87 84 90 72 94 107 97 79 69 58 82 76 86 86 76 72 67 65 94 62 65 66 179 121 54 72 60 128 94 68 104 212 164 166 210 133 186 108 182 207 80 128 125 68 123 196
69 161 52 110 168 125 226 187 74 197 182 94 213 197 66 109 222 103 55 100 198 60 89 154 82 56 62 69 57 58 72 60 69 67 60 62 67 92 72 58 69 62 64 66 73 88 147 82 114 146 54 72 159 78 69 64 58 76 72 89 105 74 92 84 77 64 55 60 43 54 114 63 85 99 82 70 64 70 56 64 76 88 67 68 199 138 194 237 108 175 184 143 218 93 198 228 215 63 196 115 161 177 126
93 85 158 68 189 64 66 140 209 145 179 192 208 103 174 158 140 166 54 98 88 56 66 124 82 76 74 73 55 70 99 59 57 63 42 57 54 72 62 52 64 68 62 52 69 78 72 75 72 75 67 84 59 56 53 73 58 49 49 76 97 90 64 120 129 119 155 187 166 153 82 55 65 49 133 72 67 57 64 123 83 87 147 94 108 109 119 133 128 166 143 195 216 138 215 166 137 119 149 202 170 68 64
65 109 110 158 77 178 99 88 190 102 182 157 155 146 100 82 117 45 62 161 48 55 145 73 62 72 62 73 69 29 51 84 79 53 72 104 56 47 25 59 55 48 73 37 62 62 43 54 67 88 161 103 100 113 100 65 56 89 156 157 161 54 44 115 165 167 92 83 160 160 162 179 58 43 160 92 68 79 62 68 110 93 60 99 103 74 167 177 138 128 165 178 190 212 196 211 153 180 177 64 194 92 83
154 111 95 107 95 117 124 137 219 106 146 213 151 169 120 149 134 129 102 67 45 115 48 69 89 64 60 102 58 37 35 82 159 158 118 36 103 129 138 155 34 149 116 89 35 54 39 62 75 86 80 60 107 75 55 73 125 109 88 102 54 65 38 138 159 164 44 115 134 165 162 130 45 168 166 168 150 102 70 104 66 134 171 94 186 158 168 125 172 72 188 146 229 221 153 186 225 106 148 148 72 168 95
76 172 144 73 165 98 89 128 136 190 205 182 166 113 121 201 149 102 149 57 111 85 55 58 80 72 105 59 67 44 52 103 125 151 86 39 52 130 140 170 31 51 111 114 64 34 46 62 105 59 46 57 97 77 66 96 100 82 160 93 51 24 34 94 153 169 166 150 158 151 156 197 32 93 206 191 153 103 73 102 139 125 69 145 165 185 187 206 198 194 155 98 141 141 146 182 165 198 197 181 171 85 88
96 184 109 171 59 227 57 158 201 201 136 166 139 135 118 79 120 74 140 151 76 175 109 133 118 114 106 185 105 48 37 118 151 131 162 148 150 109 118 189 24 28 79 115 145 65 34 42 58 88 83 74 62 63 62 80 95 150 83 37 35 31 38 80 164 154 159 167 146 154 124 41 39 65 128 195 164 103 129 146 88 168 174 197 70 230 174 110 149 174 73 151 181 213 199 184 198 117 77 225 100 104 168
55 145 86 164 126 168 97 109 158 135 164 201 126 124 135 201 179 186 141 158 161 67 111 149 98 89 184 166 80 36 48 49 86 153 140 148 159 144 108 60 38 25 51 72 66 74 44 44 41 63 68 72 87 97 67 126 138 153 75 129 70 42 49 46 67 118 147 170 166 80 59 38 68 161 165 176 120 107 104 109 109 105 114 165 130 150 93 185 209 145 164 198 181 98 218 208 115 82 88 103 187 185 164
189 140 170 96 176 158 191 212 194 161 150 201 150 164 165 228 179 170 146 160 184 165 115 59 77 118 171 178 164 53 43 31 27 48 109 135 118 76 27 48 44 70 131 46 168 65 41 48 37 41 109 74 65 117 75 121 137 85 39 228 60 66 54 47 51 46 23 58 21 43 116 107 170 157 161 157 145 66 78 208 94 67 90 196 221 87 176 176 137 129 182 195 194 225 145 93 118 223 135 70 109 45 141
192 108 128 174 155 135 153 191 198 217 204 197 108 186 127 133 119 153 151 130 64 176 143 79 216 107 148 139 133 135 87 134 31 38 32 47 25 39 27 29 218 145 115 178 204 179 35 83 28 88 72 47 115 138 86 83 78 66 85 162 185 116 190 99 44 36 28 89 160 43 72 168 190 177 121 135 84 52 154 144 123 65 141 97 159 190 145 167 208 128 199 153 196 204 192 198 140 121 130 216 104 73 125
188 145 58 135 95 100 48 190 195 188 118 179 129 197 184 188 204 218 213 118 139 202 129 62 177 164 98 188 182 117 145 48 78 129 75 98 49 55 102 153 135 139 204 208 46 44 44 77 106 98 93 83 130 118 75 79 67 56 54 97 206 82 185 79 66 64 58 55 74 184 139 113 137 110 93 73 53 138 123 90 128 110 177 86 150 204 156 133 159 184 80 109 121 190 208 197 190 150 109 87 177 155 179
146 102 134 199 186 169 187 215 177 80 168 205 211 80 138 191 161 174 167 177 181 144 146 92 127 157 158 167 95 113 97 77 166 84 108 102 72 77 86 87 139 169 169 62 46 89 126 151 51 63 140 104 65 158 127 154 107 186 83 94 114 180 150 200 111 155 120 124 225 209 241 167 108 69 140 97 136 90 146 130 86 157 196 96 90 164 144 202 208 204 226 170 216 176 192 202 186 204 209 93 90 117 120
72 174 121 104 159 99 218 212 138 191 198 198 204 223 205 121 180 208 178 128 147 178 156 138 146 68 125 177 107 83 119 169 160 144 99 83 97 138 80 117 181 124 67 107 109 57 73 137 139 114 134 89 127 168 83 171 83 121 147 74 124 119 66 135 102 121 206 139 186 80 114 96 103 167 116 181 103 172 136 170 205 178 109 154 107 213 195 145 110 202 143 185 108 186 70 118 186 106 83 117 197 107 116
51 72 56 98 179 137 154 70 179 70 149 123 210 204 88 124 161 92 201 115 136 143 169 100 204 72 148 194 134 130 41 52 123 94 107 202 145 98 115 104 74 199 51 155 138 62 148 165 113 111 151 80 143 106 116 103 137 128 43 34 108 167 155 178 169 138 103 59 44 42 56 141 95 115 130 107 105 181 80 196 78 104 146 151 159 167 154 151 107 166 216 170 219 133 195 233 233 131 194 153 186 83 111
155 147 199 177 90 189 194 221 212 138 192 192 218 141 209 140 171 73 106 135 135 84 147 75 108 82 117 149 94 120 137 78 121 45 44 37 73 109 87 123 160 70 48 41 73 129 149 70 74 52 115 119 136 140 138 73 164 62 57 204 192 178 191 187 194 207 188 188 187 166 106 104 69 70 146 123 126 128 136 135 87 92 118 150 175 191 207 191 123 235 181 136 167 171 171 172 145 155 94 202 162 211 134
98 115 117 190 144 94 120 63 127 117 196 208 177 149 172 189 196 120 186 139 190 109 102 137 115 179 124 127 162 60 78 75 43 78 92 165 171 165 166 154 149 197 210 67 56 174 139 175 64 28 104 144 116 129 133 68 86 36 56 194 197 223 208 221 218 197 189 170 115 93 93 82 72 138 172 92 164 161 62 59 119 128 202 176 117 150 161 226 194 218 180 220 231 147 204 221 189 106 149 66 90 141 129
118 146 143 153 62 149 177 185 217 75 140 109 160 216 202 145 59 160 140 189 154 106 143 66 149 56 126 164 65 137 67 92 55 107 179 179 189 196 195 198 200 199 196 150 56 100 129 143 48 46 116 92 144 131 168 171 65 43 69 196 207 233 221 191 184 169 175 176 175 175 138 140 118 100 167 82 108 208 114 123 169 174 167 184 161 153 111 158 206 187 232 135 151 202 217 211 162 156 82 197 136 202 117
82 161 114 172 87 181 65 99 182 120 188 172 155 204 181 209 202 156 94 164 131 208 185 161 80 170 113 85 87 77 53 82 105 117 121 165 185 197 197 209 205 221 202 137 77 131 172 139 86 87 108 167 140 120 135 162 51 87 118 217 231 201 190 196 202 195 194 187 188 177 184 121 79 123 127 171 136 63 158 135 96 108 147 199 176 167 180 131 208 136 179 192 182 127 144 80 181 136 213 199 94 136 148
53 82 153 114 93 176 110 124 151 87 151 105 94 198 78 169 217 116 104 170 114 198 178 178 63 98 42 154 88 73 121 167 164 179 181 115 161 204 205 201 210 208 211 117 48 72 187 144 93 92 108 159 138 124 108 136 125 92 162 213 202 158 208 205 207 199 202 192 178 156 139 160 90 128 53 66 98 86 202 65 127 96 161 116 141 157 120 93 143 204 160 187 178 168 181 229 181 166 222 219 92 200 125
176 89 115 135 181 136 92 75 128 170 162 149 210 198 165 150 180 89 138 165 115 169 116 196 59 141 110 44 102 89 70 141 184 185 189 175 157 184 204 209 211 208 192 164 72 124 177 175 96 98 129 140 133 126 139 174 196 98 198 217 215 204 211 205 210 194 194 182 120 166 175 187 168 144 86 127 123 180 140 92 123 148 140 197 141 221 180 184 202 128 150 191 127 218 135 129 220 171 149 92 154 187 180
107 60 171 184 141 136 146 138 151 56 88 123 92 186 160 130 144 155 192 186 113 41 48 58 76 137 58 58 76 151 151 106 182 188 208 199 191 164 205 219 213 221 197 140 95 137 171 128 115 114 144 160 146 133 133 161 156 109 206 207 220 212 218 205 185 202 180 167 188 187 199 187 192 159 114 149 145 130 75 149 162 83 149 204 96 111 119 137 185 196 184 120 121 178 206 190 156 217 192 212 147 67 141
82 158 88 74 66 140 127 133 151 69 130 139 137 187 178 192 123 123 197 106 115 62 43 92 115 116 127 129 118 176 186 178 144 195 200 207 204 206 189 211 227 221 195 123 124 180 164 135 123 114 131 151 141 156 139 148 125 97 202 206 209 207 209 219 209 160 190 186 168 194 179 198 169 103 97 121 150 117 159 177 134 79 107 128 130 228 94 195 127 161 186 194 225 146 150 158 121 105 77 175 136 83 114
80 134 105 196 145 108 111 171 169 166 167 104 125 232 216 130 154 190 151 99 213 109 63 154 130 108 84 49 154 194 184 181 165 187 187 192 208 199 198 216 232 218 206 133 117 186 141 119 111 124 140 176 133 126 138 134 161 139 189 209 212 207 218 215 194 195 198 198 190 189 186 136 177 149 141 98 141 162 110 192 161 171 150 171 68 189 169 202 187 156 170 215 161 85 97 124 120 166 205 206 130 155 98
105 72 153 99 136 116 99 196 192 178 56 38 211 165 145 162 213 118 103 134 154 119 144 197 136 58 55 100 153 198 192 191 181 146 198 199 200 209 196 184 223 221 205 124 119 162 145 127 115 130 156 158 143 123 144 148 165 145 158 205 204 212 211 211 185 190 198 191 194 196 141 161 201 188 165 88 92 136 106 136 134 159 146 188 206 181 190 165 156 192 207 219 158 155 194 158 177 90 93 204 155 66 145
89 156 79 92 205 136 111 93 139 178 154 146 158 123 195 106 100 144 151 162 133 141 86 144 111 148 120 95 133 170 191 188 195 178 190 202 198 211 206 204 213 220 197 124 133 184 151 109 113 140 171 131 140 134 137 160 143 151 184 195 195 226 226 206 200 197 207 200 192 184 169 191 192 191 170 108 78 179 124 151 133 157 196 115 176 199 182 121 169 184 202 189 141 150 134 88 153 124 136 169 184 199 108
206 110 94 178 125 65 104 116 174 124 188 110 139 168 182 153 77 117 107 149 185 87 113 150 120 137 115 137 123 176 188 191 199 186 148 198 198 205 198 209 200 228 212 127 153 141 136 138 143 149 155 155 141 146 133 146 165 170 196 199 211 221 210 201 207 206 205 202 187 170 191 194 191 184 168 111 98 114 118 160 229 157 166 105 182 170 196 192 180 121 120 167 151 166 200 217 180 161 111 143 109 181 104
110 125 77 70 139 113 95 188 48 64 171 227 70 127 133 108 185 192 153 157 179 207 88 178 96 141 131 147 151 180 189 191 201 190 180 194 206 198 195 202 195 226 208 124 159 171 131 113 149 145 147 141 135 134 136 141 174 158 195 207 216 227 200 210 212 206 202 201 182 192 199 191 185 179 184 134 114 172 186 133 187 223 172 180 189 236 178 133 215 153 201 198 198 157 147 144 151 145 139 191 180 138 64
72 95 111 141 123 145 44 60 141 146 155 75 178 215 187 156 206 215 107 157 194 123 86 197 106 60 96 174 175 178 189 204 201 197 167 180 207 211 204 195 192 204 206 138 145 145 128 143 136 143 140 151 134 137 137 149 166 139 189 219 233 228 202 202 208 199 209 200 181 201 213 179 191 181 160 145 149 127 165 126 196 102 190 176 170 225 177 178 89 135 188 155 154 141 225 162 141 184 146 153 140 120 165
138 120 104 45 59 119 83 159 115 140 129 120 160 154 139 128 119 199 184 162 136 76 164 76 67 153 63 181 181 161 181 194 188 216 202 194 217 196 202 204 196 210 220 127 146 145 130 119 126 153 151 154 135 134 136 144 164 128 202 221 228 206 210 209 200 206 216 196 188 191 202 197 191 178 179 171 175 130 169 178 114 190 160 180 189 166 215 189 178 197 236 155 169 186 171 159 86 197 127 95 127 98 100
114 115 92 106 92 168 146 186 190 113 98 68 92 161 175 135 105 151 155 179 160 100 69 146 109 109 123 189 200 106 185 197 207 196 200 182 198 208 195 197 201 201 201 146 157 151 128 121 124 145 148 147 141 136 133 131 147 120 205 221 219 200 207 206 209 216 196 213 206 198 198 189 184 170 177 179 144 117 111 120 113 87 180 126 129 118 135 188 194 140 213 189 114 137 161 181 178 196 108 171 90 141 79
110 98 131 106 78 106 168 155 102 123 120 137 215 168 137 158 110 187 155 143 121 60 145 96 93 87 145 184 206 176 191 199 198 196 204 174 191 219 198 191 200 198 210 138 140 141 130 126 136 138 150 148 136 136 144 136 155 148 199 228 196 210 210 205 212 217 184 205 207 200 195 199 181 172 189 202 136 121 114 170 179 114 182 158 147 139 201 199 181 164 129 190 123 171 160 111 165 174 117 182 103 79 149
100 120 102 115 69 87 65 144 97 113 165 93 125 155 128 146 105 144 181 178 84 141 76 104 99 34 171 188 210 189 181 186 182 199 200 197 205 196 208 192 200 192 208 147 144 139 130 116 134 147 154 186 155 131 136 138 145 136 216 219 194 208 211 219 219 199 199 197 209 197 196 187 182 179 187 188 161 146 167 137 158 137 123 84 121 128 187 149 114 217 179 168 176 165 190 109 158 165 111 96 160 116 109
86 141 87 156 160 75 57 164 189 100 137 179 182 77 136 174 134 198 137 138 85 174 138 93 73 90 136 198 202 201 128 190 192 197 196 212 187 194 219 202 198 202 207 139 143 139 128 124 136 147 159 199 148 144 130 129 143 130 202 211 208 208 201 219 208 201 185 207 215 199 201 189 134 184 200 189 167 85 109 120 169 164 156 170 166 181 191 188 156 162 174 168 143 198 171 155 136 121 164 147 115 155 90
138 114 178 97 140 72 153 76 131 85 129 127 209 87 106 139 202 161 184 168 202 141 170 121 76 63 116 192 181 198 167 191 190 205 204 198 195 218 227 204 209 204 204 143 141 138 128 128 135 148 200 162 158 138 131 131 134 147 218 196 204 195 202 227 208 200 208 210 205 205 191 197 167 180 192 177 159 88 125 85 135 134 144 192 207 145 156 159 155 171 119 125 109 227 138 140 147 131 118 149 97 120 103
97 65 35 73 128 83 18 32 205 74 188 145 100 98 140 177 195 100 207 202 131 86 75 64 48 139 135 182 194 195 182 181 199 207 197 218 198 212 205 212 202 207 206 137 144 130 127 125 148 169 194 159 160 147 136 138 148 147 207 192 199 201 201 219 213 179 202 204 206 205 204 188 202 191 200 191 139 75 74 164 187 187 107 154 185 219 111 141 148 100 87 149 186 123 150 106 96 90 85 131 168 129 137
123 104 119 77 102 158 124 85 134 42 64 157 126 184 139 125 144 168 148 147 157 72 162 56 62 186 154 168 190 210 197 134 182 204 207 215 200 200 226 210 201 199 196 151 144 140 138 128 145 153 155 147 140 148 145 130 144 127 207 196 199 205 231 209 199 202 207 202 202 206 191 138 185 191 198 202 149 123 108 114 146 194 176 187 126 177 117 161 196 157 180 133 109 169 185 117 94 118 110 117 124 118 95
128 136 106 168 99 96 34 79 78 138 73 113 103 133 139 156 57 108 201 105 43 98 172 83 93 159 172 160 198 197 202 168 188 197 204 199 208 186 223 226 204 200 189 155 159 133 125 128 131 184 206 162 155 138 138 127 138 153 205 192 201 215 218 225 190 201 206 199 190 197 182 180 201 201 186 187 110 48 123 145 53 179 217 210 130 140 181 209 175 158 117 133 170 134 102 188 111 162 114 107 156 118 134
159 125 130 145 84 175 49 73 60 103 59 97 89 202 168 134 79 68 170 102 67 73 88 126 70 177 186 155 190 199 200 169 181 204 216 215 212 197 225 226 199 192 174 187 164 128 125 123 131 171 194 155 159 128 143 143 130 126 207 199 204 211 210 201 200 208 208 209 204 197 145 179 200 199 197 182 98 127 72 134 107 196 116 145 171 182 189 139 179 146 121 117 176 166 146 113 126 146 115 118 108 82 178
137 120 165 172 114 64 42 78 72 51 108 87 84 82 75 74 157 80 44 123 47 129 60 77 54 147 169 82 192 209 202 171 170 201 208 211 221 194 202 226 202 199 185 137 174 131 131 131 143 156 191 189 146 135 149 137 126 130 219 191 202 227 205 192 207 211 217 201 201 176 177 204 211 196 185 167 105 63 73 111 125 135 138 171 150 174 134 124 207 123 104 131 178 114 97 84 160 121 113 130 111 111 162
76 148 92 158 116 64 66 114 54 125 66 100 115 94 63 58 105 73 92 52 149 67 177 65 48 156 184 130 169 190 205 201 182 172 208 211 215 207 195 218 221 205 168 165 137 133 123 138 150 166 175 199 148 137 136 130 130 134 202 204 200 229 198 202 212 219 223 216 202 134 175 208 206 202 189 146 59 80 129 106 177 181 130 125 87 131 93 140 161 134 133 210 141 134 165 197 123 124 136 114 147 147 105
139 123 92 106 85 127 114 76 114 102 87 73 82 161 25 121 125 94 167 49 88 55 111 46 62 125 185 162 159 179 197 196 172 174 205 217 212 208 184 219 211 199 170 146 129 124 129 141 133 171 162 170 150 138 144 138 125 134 207 202 209 228 208 201 210 225 212 213 186 178 217 211 206 196 194 123 59 75 116 80 117 150 135 149 140 168 116 130 144 119 156 102 150 114 107 110 107 121 121 110 117 130 117
150 109 70 97 134 58 76 49 86 105 46 158 103 69 45 87 29 65 48 68 57 49 139 45 16 95 182 185 117 166 172 207 194 198 189 223 216 199 187 222 211 198 139 134 128 130 135 129 129 164 186 168 140 137 135 131 131 125 215 204 210 225 186 208 219 215 212 206 162 154 207 190 207 212 194 126 83 104 139 176 93 95 121 121 126 197 115 179 158 139 184 126 97 105 97 88 92 108 104 98 90 85 123
119 128 140 127 135 176 100 96 137 96 64 72 125 69 140 42 105 116 77 65 73 58 60 75 34 33 190 189 148 184 188 216 202 189 189 199 223 202 187 192 221 199 151 159 124 129 129 128 145 187 168 160 139 137 134 128 129 128 187 199 216 202 201 205 231 208 220 188 174 191 212 205 184 208 166 131 110 123 107 146 141 144 181 145 104 117 174 124 127 158 77 96 127 140 92 135 79 100 151 82 120 94 95
186 158 134 160 105 104 138 111 123 51 129 58 113 100 92 37 90 185 43 65 70 34 79 47 36 22 192 182 185 153 192 198 213 204 184 202 196 225 192 211 217 199 145 134 136 127 123 125 145 172 184 194 150 133 136 138 127 151 188 205 211 190 209 212 211 223 216 164 175 209 207 199 194 186 178 110 78 123 102 74 146 135 74 114 113 78 158 93 165 103 104 76 170 118 93 86 86 84 97 82 123 135 103
178 149 149 167 146 201 136 157 86 156 127 103 108 76 79 65 116 111 25 53 77 93 37 67 72 18 175 178 194 115 191 199 210 206 204 191 197 194 218 180 222 212 179 121 127 128 129 124 149 174 167 210 179 133 133 138 127 194 182 207 216 177 201 216 206 227 194 191 197 205 208 197 200 186 190 141 129 92 134 77 100 88 93 98 96 76 75 102 102 121 93 156 140 127 125 117 92 175 116 88 102 103 89
162 176 149 166 167 159 169 161 184 113 99 89 129 64 51 93 82 79 34 45 116 109 115 48 27 17 128 188 202 143 184 187 223 209 211 177 200 205 195 185 223 209 182 138 128 135 128 129 131 131 207 221 184 150 135 138 133 197 191 209 225 187 199 204 213 218 174 190 212 206 202 197 199 127 178 86 104 82 110 153 118 129 80 180 103 116 89 84 102 105 125 106 126 140 106 116 93 103 100 100 87 82 76
171 160 190 148 141 127 154 155 171 150 139 153 145 129 74 45 69 41 44 53 55 34 114 72 49 22 82 165 194 190 160 189 207 198 191 184 198 213 208 175 204 209 197 135 128 120 123 129 140 185 208 176 162 148 133 123 127 205 194 206 218 197 210 219 223 195 178 216 221 206 180 209 182 189 148 53 60 118 76 58 179 87 179 138 143 126 107 100 136 124 66 117 102 178 108 102 129 98 107 115 99 98 90
140 145 199 181 127 187 168 154 166 164 157 158 153 123 35 44 65 55 43 90 67 41 52 66 39 16 84 164 176 217 111 188 202 223 191 179 211 206 227 191 175 221 200 131 127 127 120 127 168 146 179 137 146 139 136 141 124 215 197 222 195 199 213 201 225 154 185 215 232 207 200 199 148 178 97 104 103 75 80 60 102 105 88 166 170 114 123 114 117 150 93 124 103 139 102 95 141 86 104 94 90 98 127
156 162 178 178 174 170 198 206 191 170 169 189 154 94 53 82 75 51 94 64 44 59 85 54 51 19 67 124 169 210 138 191 189 221 211 176 202 222 210 206 169 219 204 174 130 130 124 127 127 182 198 186 155 130 131 129 167 220 210 221 156 208 215 223 200 174 199 229 226 200 196 198 174 168 83 92 42 135 107 114 84 150 76 150 97 140 92 107 75 111 116 119 121 141 115 117 134 97 108 93 90 85 68
150 177 171 177 177 196 220 158 171 144 93 44 80 53 49 78 78 49 28 66 39 72 84 77 35 28 23 105 151 186 215 184 191 231 207 165 187 219 202 216 185 221 206 176 139 135 124 127 123 133 125 166 139 130 128 128 205 190 207 218 178 211 213 212 174 188 220 227 206 207 204 175 190 172 58 69 54 38 94 67 118 109 114 95 104 113 125 106 114 110 110 135 104 93 94 115 127 98 127 76 82 93 83
174 181 175 200 165 192 164 146 143 98 118 72 63 118 94 42 58 100 47 75 76 25 57 68 62 24 19 104 176 179 198 128 191 223 219 175 178 216 212 218 204 219 209 171 136 135 124 119 125 158 145 133 136 127 127 120 221 191 208 206 194 219 209 204 180 190 207 223 201 200 195 144 196 133 46 103 125 86 92 100 104 117 113 131 104 54 108 119 89 118 126 82 85 133 123 102 99 106 107 96 77 84 87
157 191 171 180 170 182 180 113 190 136 149 100 100 123 38 104 36 70 44 42 62 26 54 59 51 62 44 167 99 178 196 176 190 206 223 198 161 191 206 215 190 201 219 197 143 130 123 127 129 140 125 129 127 124 120 120 220 196 209 182 196 221 213 220 156 185 228 201 190 207 145 200 170 79 76 57 83 92 100 111 62 94 153 147 93 88 104 118 125 125 102 98 104 106 95 96 104 98 95 109 99 83 80
192 178 175 190 188 171 161 149 166 150 126 149 104 23 90 65 80 57 38 44 22 39 59 69 32 16 34 94 117 187 196 201 137 189 200 199 180 191 201 175 180 177 210 202 130 137 125 130 129 150 175 133 129 127 121 138 204 184 208 119 201 201 200 179 138 211 221 187 185 198 100 200 184 73 62 83 57 72 83 96 126 162 102 143 133 78 75 80 95 105 108 107 113 103 108 110 106 109 93 108 104 90 88
190 200 190 185 167 139 181 182 161 149 148 129 54 62 88 53 51 49 69 47 48 47 53 84 28 70 106 49 124 153 171 222 139 190 205 197 156 182 221 223 179 166 196 180 129 135 127 115 139 140 154 136 159 138 117 170 161 205 175 158 204 205 207 151 167 211 210 188 161 135 205 182 129 60 94 64 59 78 105 94 84 127 117 111 65 102 80 107 87 86 127 111 116 114 133 129 97 96 97 103 97 89 97
178 176 172 168 169 185 170 177 137 137 157 113 116 95 130 66 53 60 53 88 23 28 59 86 41 78 34 41 64 144 181 204 158 188 211 178 171 184 212 205 200 190 185 199 119 129 119 123 126 136 155 147 157 126 119 159 188 220 153 181 202 211 205 109 177 215 189 184 189 179 181 181 146 78 78 100 56 70 160 210 213 223 116 140 64 84 65 108 69 150 125 118 130 133 145 94 82 80 92 104 93 115 105
178 182 165 184 177 182 169 143 143 139 120 134 103 141 109 46 119 43 22 47 48 90 51 123 25 59 90 14 103 165 138 192 185 159 191 199 144 154 206 185 177 181 182 174 133 118 121 128 140 144 175 150 134 128 134 171 215 220 118 205 198 204 189 116 190 201 189 194 135 182 206 133 77 69 109 155 55 54 77 123 57 115 157 48 63 187 94 102 98 89 80 103 117 117 123 127 120 93 106 93 108 92 106
185 198 181 182 178 167 178 136 128 144 157 187 149 75 53 52 42 39 205 33 157 43 35 49 53 58 37 79 77 138 87 137 143 99 180 143 182 139 187 191 201 185 162 172 133 120 119 127 149 133 165 146 133 133 137 135 206 170 88 186 200 197 161 103 191 179 189 153 160 179 158 153 116 119 69 98 76 77 69 97 104 83 80 88 105 164 129 158 86 123 97 93 103 76 100 123 84 107 89 114 78 83 103
182 169 197 181 162 161 155 138 166 157 138 156 126 82 73 92 74 115 111 53 69 108 84 48 33 113 33 107 51 89 156 166 192 185 105 180 177 107 194 210 202 200 133 143 137 127 137 130 143 177 159 150 136 126 137 134 196 197 104 195 196 191 131 88 182 138 182 114 201 162 80 178 82 117 128 121 57 70 55 76 69 114 90 157 111 128 88 110 87 103 110 103 147 119 111 120 114 119 109 114 106 82 115
194 177 196 182 172 159 137 168 159 144 157 140 104 93 37 43 57 127 34 45 32 26 68 90 58 87 70 66 45 146 99 86 187 155 82 137 178 127 169 201 191 196 176 141 135 124 139 131 154 168 143 139 138 130 131 133 185 198 143 200 217 186 114 179 147 150 190 107 194 130 165 147 160 168 110 134 116 124 86 68 87 167 102 88 96 100 113 104 95 129 137 158 80 109 125 120 83 126 98 110 107 130 100
189 176 178 177 189 156 177 194 166 167 147 160 42 68 104 34 65 41 53 58 165 151 175 90 53 23 32 46 57 93 154 188 144 131 98 198 196 129 155 169 187 182 137 138 138 124 134 130 149 156 144 157 150 138 133 138 172 116 175 209 197 137 116 182 172 200 136 187 130 116 190 87 139 153 130 131 68 109 109 151 161 100 103 86 89 99 131 87 94 89 107 83 144 106 115 116 87 110 118 118 109 93 107
176 195 197 195 172 195 186 172 189 133 178 138 74 90 32 49 60 108 159 208 191 212 232 216 187 36 60 67 99 86 124 195 54 134 179 136 170 139 129 197 212 146 144 140 130 135 134 137 155 169 139 149 137 134 131 141 137 202 226 202 188 107 189 160 146 185 154 175 51 198 137 125 133 100 155 98 116 72 96 187 72 108 110 93 93 97 94 87 111 85 68 139 131 98 98 95 106 134 97 110 110 124 109
199 206 204 189 184 189 191 199 174 161 168 153 125 49 55 58 43 65 66 187 77 102 95 104 174 186 181 211 137 78 109 125 117 96 111 131 169 127 185 204 154 140 141 133 131 130 129 139 147 146 143 151 136 146 140 133 135 168 210 202 186 105 174 138 135 92 143 75 147 179 90 130 124 108 73 106 140 83 76 89 114 121 136 126 104 123 172 76 84 114 99 104 89 114 121 90 114 111 123 98 120 96 138
185 208 204 200 202 204 191 182 186 207 126 72 141 155 165 205 208 229 150 146 158 176 133 211 162 26 29 51 164 144 136 94 127 97 157 156 167 167 138 135 130 128 129 128 135 135 140 130 135 159 141 135 145 146 140 143 144 136 158 179 179 121 185 178 171 104 140 106 165 134 130 130 117 124 219 89 108 85 92 89 117 111 145 106 127 123 124 104 93 108 69 104 104 117 98 118 99 131 126 115 110 129 119
192 199 197 201 211 212 204 209 200 175 108 156 130 125 107 44 76 146 210 177 187 196 169 156 108 195 133 105 180 157 130 129 149 134 121 143 127 144 133 131 133 133 131 127 138 140 146 131 153 150 144 145 147 136 134 136 133 138 145 135 148 185 194 153 185 148 117 106 118 92 139 185 219 202 111 93 202 106 144 109 89 172 211 208 208 211 169 84 82 94 95 107 108 110 84 96 97 128 119 110 130 120 123
197 198 207 200 207 199 210 206 215 176 158 133 159 90 198 66 121 157 188 170 221 196 108 118 164 188 55 53 146 131 102 143 121 117 147 150 169 150 147 141 138 134 131 135 146 149 139 146 148 146 150 143 140 143 130 135 147 139 144 143 130 144 134 147 159 129 117 130 115 129 126 154 105 85 93 98 146 109 200 189 198 211 185 100 209 121 182 90 126 127 100 111 93 97 86 103 104 92 130 118 131 121 128
198 208 207 197 194 216 219 212 189 184 161 96 158 85 104 69 94 88 184 188 131 208 178 179 161 16 63 70 133 124 139 110 93 129 146 136 147 154 165 162 148 135 137 143 156 141 135 160 154 135 146 138 139 139 137 148 157 151 167 170 150 160 141 138 121 171 120 136 129 157 147 103 106 89 84 150 114 69 121 170 121 150 116 86 94 114 158 164 143 111 100 121 95 93 113 73 110 103 123 130 121 139 134
190 196 189 205 208 206 199 204 175 174 172 150 130 116 92 187 116 160 180 204 186 121 182 172 161 57 65 194 200 162 147 108 120 128 127 130 130 133 139 153 180 174 182 166 158 146 141 154 155 150 140 148 140 143 140 181 195 196 169 165 165 151 158 145 131 153 114 119 109 157 108 99 95 148 123 119 102 143 144 129 141 93 140 150 115 98 136 127 102 180 158 94 97 92 90 98 116 103 118 147 136 144 128
182 198 196 207 199 208 207 205 176 175 144 149 124 120 165 136 181 150 195 118 228 209 187 174 199 48 201 86 137 113 129 108 133 141 128 130 126 85 59 98 124 160 172 165 171 161 166 155 151 143 167 170 172 190 182 176 162 137 140 151 148 141 157 164 145 118 177 118 130 149 168 100 125 154 92 124 109 108 124 95 95 100 139 140 147 153 109 105 100 208 121 110 107 115 114 124 106 141 118 144 146 137 138
190 188 204 202 195 202 213 210 195 181 143 127 83 117 149 119 150 186 191 165 215 233 226 176 167 78 75 140 64 114 94 109 131 130 129 138 167 148 137 77 65 129 149 164 162 177 196 191 184 164 185 184 172 164 158 139 69 73 92 74 131 149 130 162 139 129 124 128 113 162 95 148 145 67 117 63 210 105 139 147 184 92 115 158 149 155 140 106 113 109 128 185 100 166 134 127 127 124 127 117 151 138 130
200 190 194 202 209 197 197 196 200 194 131 130 113 95 161 99 130 135 139 218 172 225 124 169 186 201 108 188 94 84 62 125 124 129 125 139 141 146 157 136 131 65 128 156 149 154 157 177 187 179 159 154 164 158 113 87 139 157 143 153 156 149 144 138 133 129 131 117 140 190 123 80 141 85 108 166 57 72 63 110 177 185 120 162 162 134 134 133 100 115 118 102 129 102 107 100 128 124 139 141 164 148 146
202 192 196 207 202 196 186 208 186 181 178 147 100 94 82 178 181 108 177 133 208 131 191 209 220 201 75 56 44 117 86 125 136 131 133 137 145 139 124 146 159 147 68 140 154 130 153 155 169 177 160 155 151 113 108 155 161 154 162 169 155 146 147 141 141 130 117 119 211 136 70 215 102 141 104 106 115 135 114 106 168 125 161 141 138 134 196 124 138 109 96 94 99 98 105 119 178 130 120 153 149 156 149
208 197 208 198 205 200 206 200 187 190 169 146 110 131 87 188 157 147 201 195 170 181 151 156 190 165 167 158 105 109 83 116 124 129 129 138 140 159 144 177 147 129 128 104 140 143 139 151 144 158 159 162 147 123 154 165 145 146 140 138 136 136 146 143 127 140 126 156 108 116 174 66 94 120 72 90 75 100 76 180 191 185 143 143 149 179 151 188 156 169 127 104 134 102 121 120 135 141 121 149 136 147 146
198 202 207 207 197 185 197 180 172 166 189 144 90 172 108 133 108 196 164 161 210 154 137 157 187 108 181 212 108 187 184 94 138 135 127 148 154 170 160 134 171 149 143 125 100 145 159 158 150 146 158 150 133 141 136 162 143 138 148 130 149 136 136 136 135 140 115 141 130 60 125 108 113 78 34 133 97 109 148 58 215 170 185 153 150 157 125 166 145 156 96 102 100 191 127 148 121 140 135 140 154 150 153
210 208 201 180 192 189 205 190 189 171 187 159 86 110 158 107 120 171 207 185 136 195 171 164 191 121 215 172 165 98 51 117 107 136 141 131 137 149 156 143 134 137 131 130 118 110 156 151 151 155 140 125 161 170 150 151 144 131 146 128 134 136 137 135 127 134 120 110 93 166 84 64 74 145 188 68 67 199 135 162 176 138 178 204 164 174 159 156 148 160 179 180 150 127 113 113 189 140 149 145 146 145 166
205 211 178 196 199 189 200 180 188 172 174 176 146 75 190 140 184 128 162 116 178 198 189 194 166 192 82 206 110 54 138 117 192 133 131 127 133 139 137 143 136 144 149 139 138 146 157 168 164 161 135 146 148 136 162 151 154 137 145 136 129 128 140 131 128 158 102 85 133 186 63 187 43 109 196 189 54 135 175 85 102 141 191 162 202 181 178 209 182 192 158 136 120 131 121 118 134 120 197 137 150 158 155
199 190 199 198 192 207 200 188 190 181 178 185 116 116 175 149 181 174 117 156 205 213 182 194 127 205 83 150 229 64 217 87 82 115 125 130 140 139 131 134 130 133 145 131 137 118 143 150 154 136 139 154 140 151 136 140 145 134 134 150 135 131 134 139 143 158 215 88 133 136 158 147 38 196 77 145 184 116 204 164 129 199 167 207 187 168 160 179 154 189 121 139 129 129 143 125 131 144 136 165 150 153 159
200 187 200 197 188 194 195 181 176 179 171 133 109 143 119 118 157 186 192 201 227 202 167 156 209 169 198 194 211 181 95 133 182 148 131 133 119 130 129 124 136 129 127 130 128 119 159 161 144 128 139 141 143 135 129 139 153 139 140 130 130 129 128 128 124 98 86 227 136 155 106 156 164 106 204 207 218 174 64 147 195 195 177 197 206 147 209 168 154 157 127 129 137 119 124 129 125 147 158 155 156 175 158
187 197 210 185 202 198 201 194 182 184 174 133 118 166 172 174 137 201 160 162 146 127 92 139 182 201 215 206 231 205 181 77 189 120 118 106 121 128 123 123 135 128 127 131 134 128 137 184 130 137 137 134 128 133 134 133 138 135 130 128 130 133 133 188 111 201 196 124 192 68 150 127 198 210 155 189 206 170 74 77 154 154 169 151 218 170 195 159 208 182 136 126 137 108 116 139 130 141 153 149 153 176 166
187 198 192 196 207 201 196 182 166 185 162 158 166 154 160 153 143 130 115 87 192 186 202 147 202 216 82 160 207 228 210 206 212 182 186 115 143 127 187 131 131 138 131 129 129 128 114 128 128 128 127 131 135 124 140 134 131 131 144 127 134 129 137 124 199 94 219 107 168 210 130 156 187 210 154 134 118 207 190 165 161 211 194 158 161 211 206 184 160 149 136 127 129 123 117 130 131 149 146 151 141 178 159
201 181 201 196 205 198 189 198 170 186 157 186 192 139 153 199 157 168 139 115 206 199 159 207 170 147 191 195 140 141 185 200 205 198 178 184 148 182 105 125 121 126 125 127 127 148 123 127 134 155 133 131 130 134 126 130 135 134 171 131 124 128 199 129 100 189 172 227 143 176 218 139 116 111 151 104 213 187 191 194 189 198 169 174 200 189 161 138 171 176 161 143 140 129 121 118 137 151 146 153 145 166 169
199 200 196 200 176 200 197 170 184 184 191 184 187 194 160 145 172 128 119 85 187 195 150 215 119 155 208 107 194 90 149 225 215 225 92 206 189 197 109 143 117 125 159 124 124 119 121 126 149 189 127 134 136 121 136 134 139 130 127 124 164 159 103 195 138 202 192 207 227 218 223 212 64 140 198 155 127 87 165 162 177 171 208 189 172 182 201 171 134 135 164 158 149 130 124 124 150 149 154 137 146 174 151
200 194 189 196 195 192 180 187 200 166 187 181 126 153 151 172 141 115 119 108 176 133 130 190 205 148 201 211 166 226 218 185 196 204 215 180 108 138 107 160 129 129 118 127 175 118 180 162 120 128 169 149 157 128 134 126 162 130 146 181 154 129 100 174 170 140 195 196 128 213 136 210 97 171 75 93 97 89 154 187 166 167 177 151 130 127 139 171 144 148 146 135 140 133 126 128 145 147 150 129 155 148 148
189 204 191 180 194 192 207 171 174 191 192 170 130 171 169 138 151 166 159 191 165 170 198 160 184 206 136 161 177 184 150 182 145 223 212 215 228 182 207 206 213 207 139 125 161 133 197 123 125 137 120 108 167 111 172 117 118 125 137 205 211 194 201 185 204 219 197 192 206 194 201 196 175 166 59 168 217 182 140 117 158 186 184 158 170 161 154 182 189 120 137 128 128 136 141 141 143 149 166 151 145 148 148
175 181 196 192 184 174 188 159 178 187 192 189 138 170 161 148 145 129 146 137 186 186 181 129 185 117 207 105 160 146 182 198 205 150 208 215 220 198 198 113 125 128 180 161 196 146 218 174 165 153 159 118 199 111 198 168 195 204 155 188 185 162 205 208 188 211 223 200 164 187 182 124 106 137 82 119 170 192 177 151 215 176 186 194 185 176 181 121 114 153 126 130 135 137 128 141 130 150 139 164 138 147 143
171 191 178 174 179 184 180 171 197 174 189 171 185 191 140 157 167 168 147 141 129 147 116 156 143 204 182 167 200 135 209 204 158 210 110 223 177 136 195 182 216 201 207 201 208 195 155 191 171 210 204 156 210 187 160 190 190 213 199 188 222 182 209 146 207 215 171 194 164 129 68 141 105 153 88 63 143 199 148 159 151 161 181 155 160 153 178 137 119 113 124 127 131 133 129 148 129 154 139 164 134 136 151
164 180 157 185 162 182 162 189 172 160 184 145 162 166 159 137 175 135 144 168 119 164 151 117 150 130 208 192 140 164 207 210 113 144 93 199 192 211 205 151 166 150 167 205 149 196 180 155 177 206 205 182 204 146 140 195 164 212 210 130 202 172 116 218 179 175 207 97 89 190 66 187 213 54 179 157 128 208 187 185 160 206 150 145 115 146 150 141 103 137 119 125 129 129 137 147 126 139 141 151 138 130 145
177 162 174 186 176 174 177 167 157 176 165 150 157 174 174 156 176 147 124 153 110 73 137 103 189 172 190 192 156 160 206 206 181 167 201 190 167 223 211 198 133 196 138 150 144 179 127 174 177 187 172 197 169 138 157 176 129 121 170 200 128 215 117 217 109 145 209 104 210 168 76 115 161 192 182 195 206 189 161 184 179 179 184 155 186 156 115 143 127 114 120 128 166 105 129 138 117 121 135 134 150 131 125
160 190 181 171 171 133 149 196 162 157 182 138 145 175 177 172 159 150 166 135 125 208 136 153 139 109 182 194 191 209 178 210 208 160 172 201 187 138 167 221 157 107 146 116 126 121 144 150 158 139 194 150 154 137 157 161 133 166 151 158 146 126 197 109 208 104 116 138 153 111 216 147 84 74 116 140 153 161 185 176 160 185 147 167 156 181 155 164 138 120 109 120 133 111 126 126 120 129 137 136 137 127 134
198 172 174 189 155 166 179 180 174 170 165 172 161 155 166 168 157 156 141 145 190 161 124 125 98 125 184 202 172 212 179 211 185 216 210 207 176 165 121 205 158 100 157 119 118 124 123 131 139 156 189 119 156 153 150 156 135 159 123 194 108 124 215 123 198 213 157 189 121 170 218 54 131 180 172 149 150 208 127 174 192 156 124 133 127 113 100 141 118 117 111 116 147 105 126 131 146 124 147 128 140 136 124
184 155 172 160 156 168 165 165 179 177 185 180 168 189 162 143 171 153 117 118 158 127 113 189 111 98 93 161 194 208 177 212 191 182 197 215 201 199 191 194 171 125 146 124 111 125 133 117 134 139 175 159 144 133 195 185 161 196 179 95 110 87 188 210 199 118 186 167 127 100 206 160 162 189 138 199 153 96 194 180 135 166 125 156 123 133 124 119 128 123 111 121 131 121 115 119 150 140 137 114 136 133 137
170 151 182 154 164 168 156 164 175 181 170 176 161 180 164 150 150 171 111 138 154 84 127 87 162 63 121 144 171 212 197 209 205 209 205 213 210 175 175 210 180 154 208 114 133 134 135 130 185 123 179 139 105 140 180 179 218 161 85 125 174 137 134 116 211 99 83 143 160 172 164 188 178 166 181 156 166 136 153 124 125 149 143 149 134 118 129 111 134 131 113 114 154 130 135 124 117 114 135 138 131 118 119
169 179 147 137 164 157 157 185 189 170 177 170 185 161 168 154 147 165 149 127 98 88 120 139 87 79 84 185 141 166 185 207 168 197 181 216 195 206 216 180 187 199 178 156 161 126 139 171 136 120 128 129 137 155 141 134 209 146 185 213 161 170 105 151 200 148 131 108 210 209 199 208 159 179 165 185 146 138 196 96 124 144 129 111 128 119 115 114 108 106 113 88 134 136 166 131 105 98 108 139 98 74 114
180 131 159 164 161 169 168 174 180 162 166 119 166 168 151 139 156 160 140 140 100 85 117 136 96 90 137 134 162 153 155 177 181 206 215 186 209 213 209 196 200 197 177 187 196 166 161 185 209 202 181 157 162 172 197 181 167 176 186 185 207 162 188 190 179 211 200 181 196 210 188 201 184 156 182 135 184 137 190 146 129 130 130 115 129 131 129 115 94 111 111 89 135 115 146 134 86 97 140 100 104 75 78
179 156 144 139 166 154 159 176 168 161 172 184 169 151 134 141 150 141 131 127 97 113 135 111 104 100 78 129 146 108 194 191 177 213 208 215 206 212 204 195 196 192 204 204 199 205 198 199 146 189 198 192 200 196 190 191 199 204 206 206 199 205 174 189 197 207 213 196 206 201 195 198 194 161 145 186 174 138 140 135 82 89 110 108 96 107 104 106 96 102 129 84 108 109 156 102 108 131 118 90 88 97 80
125 167 149 162 133 138 153 162 157 166 169 187 155 156 140 120 176 151 144 136 118 115 157 94 103 136 106 116 96 130 165 187 201 207 197 207 212 199 199 211 212 207 217 212 197 191 207 172 140 197 187 198 205 201 200 188 188 200 195 202 195 204 201 190 197 210 211 204 206 192 189 196 196 171 141 148 120 108 144 131 104 74 107 94 62 92 114 85 68 99 105 89 118 107 139 98 118 110 98 116 94 103 92
172 131 140 161 143 154 144 151 151 148 156 185 159 157 155 136 158 135 127 154 110 139 141 118 72 109 123 199 58 190 139 184 209 196 197 208 210 208 216 209 215 207 211 210 216 204 205 190 212 181 196 200 171 201 191 212 207 211 200 207 206 206 207 188 198 208 188 206 200 211 191 209 166 155 129 120 113 133 123 116 82 93 95 124 62 98 121 96 74 113 92 96 87 102 108 106 103 92 77 70 79 82 87
