P2
4 4
255
0 10 0 10
10 255 10 255
0 10 0 10
10 255 10 255
